# xmcd
#
# Track frame offsets: 
#        150
#        13311
#        22590
#        32186
#        48142
#        59987
#        75312
#        89524
#        99997
#        111875
#        123846
#        136830
#
# Disc length: 2009 seconds
#
# Revision: 0
# Processed by: cddbd v1.5.2PL0 Copyright (c) Steve Scherf et al.
# Submitted via: ExactAudioCopy v1.3
#
DISCID=9007d70c
DTITLE=The Sons Of Navarone - Nobody's Business
DYEAR=2017
DGENRE=Bluegrass
TTITLE0=I'll Go Stepping Too
TTITLE1=Nobody's Business
TTITLE2=Climbing Up The Mountain
TTITLE3=Redwood Hill
TTITLE4=Rebecca
TTITLE5=Cool Water
TTITLE6=Een Beetje Verliefd
TTITLE7=My Walking Shoes Don't Fit Me Anymore
TTITLE8=You Send Me
TTITLE9=Always On A Mountain
TTITLE10=Blue Train
TTITLE11=Mondo Medley
EXTD=
EXTT0=
EXTT1=
EXTT2=
EXTT3=
EXTT4=
EXTT5=
EXTT6=
EXTT7=
EXTT8=
EXTT9=
EXTT10=
EXTT11=
PLAYORDER=
